HIERARCHY
ROOT Hips
{
	OFFSET 55.310501 45.591206 43.872097
	CHANNELS 6 Xposition Yposition Zposition Zrotation Xrotation Yrotation
	JOINT Chest
	{
		OFFSET -0.153500 1.163101 7.852402
		CHANNELS 6 Xposition Yposition Zposition Zrotation Xrotation Yrotation
		JOINT Chest2
		{
			OFFSET 0.000000 0.000000 3.343300
			CHANNELS 6 Xposition Yposition Zposition Zrotation Xrotation Yrotation
			JOINT Neck
			{
				OFFSET 0.000000 0.000000 7.785500
				CHANNELS 6 Xposition Yposition Zposition Zrotation Xrotation Yrotation
				JOINT Head
				{
					OFFSET 0.000000 0.000000 2.173901
					CHANNELS 6 Xposition Yposition Zposition Zrotation Xrotation Yrotation
					End Site
					{
						OFFSET 0.000000 0.000000 10.528198
					}
				}
			}
			JOINT LeftCollar
			{
				OFFSET 2.676300 -1.652401 4.938301
				CHANNELS 6 Xposition Yposition Zposition Zrotation Xrotation Yrotation
				JOINT LeftShoulder
				{
					OFFSET 4.299000 0.000000 0.000000
					CHANNELS 6 Xposition Yposition Zposition Zrotation Xrotation Yrotation
					JOINT LeftElbow
					{
						OFFSET 0.000000 0.000000 -10.245102
						CHANNELS 6 Xposition Yposition Zposition Zrotation Xrotation Yrotation
						JOINT LeftWrist
						{
							OFFSET 0.000000 0.000000 -12.703300
							CHANNELS 6 Xposition Yposition Zposition Zrotation Xrotation Yrotation
							End Site
							{
								OFFSET 0.000000 0.000000 -2.173901
							}
						}
					}
				}
			}
			JOINT RightCollar
			{
				OFFSET -2.534599 -1.686401 5.195000
				CHANNELS 6 Xposition Yposition Zposition Zrotation Xrotation Yrotation
				JOINT RightShoulder
				{
					OFFSET -4.144100 0.000000 0.000000
					CHANNELS 6 Xposition Yposition Zposition Zrotation Xrotation Yrotation
					JOINT RightElbow
					{
						OFFSET 0.000000 0.000000 -10.116501
						CHANNELS 6 Xposition Yposition Zposition Zrotation Xrotation Yrotation
						JOINT RightWrist
						{
							OFFSET 0.000000 0.000000 -12.937801
							CHANNELS 6 Xposition Yposition Zposition Zrotation Xrotation Yrotation
							End Site
							{
								OFFSET 0.000000 0.000000 -2.173901
							}
						}
					}
				}
			}
		}
	}
	JOINT LeftHip
	{
		OFFSET 2.175598 0.064499 -2.662899
		CHANNELS 6 Xposition Yposition Zposition Zrotation Xrotation Yrotation
		JOINT LeftKnee
		{
			OFFSET 0.000000 -0.000004 -18.585800
			CHANNELS 6 Xposition Yposition Zposition Zrotation Xrotation Yrotation
			JOINT LeftAnkle
			{
				OFFSET 0.000000 0.000000 -18.979500
				CHANNELS 6 Xposition Yposition Zposition Zrotation Xrotation Yrotation
				End Site
				{
					OFFSET 0.000000 -9.264000 0.000000
				}
			}
		}
	}
	JOINT RightHip
	{
		OFFSET -2.092400 -0.058102 -2.581200
		CHANNELS 6 Xposition Yposition Zposition Zrotation Xrotation Yrotation
		JOINT RightKnee
		{
			OFFSET 0.000000 -0.000004 -18.665001
			CHANNELS 6 Xposition Yposition Zposition Zrotation Xrotation Yrotation
			JOINT RightAnkle
			{
				OFFSET 0.000000 0.000000 -18.566601
				CHANNELS 6 Xposition Yposition Zposition Zrotation Xrotation Yrotation
				End Site
				{
					OFFSET 0.000000 -8.497601 0.000000
				}
			}
		}
	}
}
MOTION
Frames: 8
Frame Time: 0.041667
65.115799 34.908504 44.919102 1763.817669 9.131555 -2.052055 -0.153497 1.163104 7.852409 -10.012287 -1.681873 -0.396052 -0.000003 -0.000003 3.343305 3.937224 -3.506309 0.050580 0.000001 -0.000001 7.785502 -3.972479 10.613621 1.602776 0.000001 0.000004 2.173903 1.280619 -4.807165 1.276854 2.676295 -1.652405 4.938303 19.242292 -13.162215 -24.742312 4.298993 -0.000004 0.000006 -58.111263 -23.759680 -136.309484 -0.000016 -0.000004 -10.245104 55.793636 696.071026 8.670767 -0.000007 -0.000005 -12.703301 1308.676048 -160.548883 597.524128 -2.534604 -1.686402 5.195004 -4.832441 3.229495 10.279040 -4.144097 0.000011 0.000005 63.000852 -26.197173 161.215919 0.000002 0.000002 -10.116494 -82.338634 -14.184343 -25.852018 -0.000000 -0.000010 -12.937807 -359.066187 -41.963873 -53.150374 2.175594 0.064493 -2.662899 -724.541222 -4.105961 3.797376 -0.000003 -0.000015 -18.585804 200.745748 -190.282349 -159.453976 0.000006 0.000001 -18.979515 748.406230 3.023323 -126.418496 -2.092392 -0.058113 -2.581192 1057.300497 -23.292537 0.572684 0.000001 -0.000005 -18.665009 -1387.860015 28.875830 -410.690095 0.000003 0.000000 -18.566599 719.179195 3.398125 -28.882903
65.110603 34.930702 44.917393 1763.849143 9.099987 -2.001986 -0.153487 1.163102 7.852413 -10.047033 -1.645935 -0.451862 -0.000005 -0.000002 3.343312 3.921456 -3.469797 0.050211 -0.000005 -0.000009 7.785495 -4.004586 10.600296 1.672767 0.000001 0.000006 2.173909 1.328981 -4.839486 1.216441 2.676291 -1.652409 4.938299 19.121895 -13.087020 -24.807645 4.299003 0.000002 0.000000 -58.006112 -23.808183 -136.313774 -0.000008 -0.000011 -10.245104 55.743773 696.050918 8.681593 0.000002 0.000003 -12.703304 1308.638563 -160.527873 597.454023 -2.534598 -1.686413 5.195000 -4.717281 3.314760 10.284842 -4.144096 -0.000000 -0.000004 62.941675 -26.175722 161.290464 0.000003 -0.000005 -10.116498 -82.531184 -14.003514 -25.819795 0.000008 0.000001 -12.937799 -358.888410 -42.015045 -53.150203 2.175604 0.064500 -2.662889 -724.454451 -4.127507 3.713127 -0.000005 0.000000 -18.585804 200.740585 -190.397780 -159.458334 -0.000005 0.000002 -18.979511 748.323066 3.002542 -126.403196 -2.092391 -0.058109 -2.581187 1057.037890 -23.360241 0.361838 0.000002 -0.000008 -18.664999 -1387.697730 29.135200 -410.731950 0.000003 -0.000007 -18.566601 719.286839 3.492326 -28.647746
65.100800 34.955101 44.916992 1763.903457 9.063977 -1.906373 -0.153491 1.163100 7.852398 -10.097809 -1.585512 -0.542340 0.000004 0.000010 3.343300 3.903539 -3.447206 0.049883 -0.000003 -0.000002 7.785499 -4.067677 10.586267 1.753186 -0.000005 0.000003 2.173911 1.390770 -4.869170 1.138537 2.676294 -1.652405 4.938298 18.991964 -12.980701 -24.861375 4.298995 0.000000 0.000006 -57.885833 -23.846578 -136.345725 -0.000009 0.000002 -10.245096 55.718262 696.031739 8.691125 -0.000010 0.000001 -12.703302 1308.580425 -160.517737 597.382005 -2.534601 -1.686403 5.194999 -4.640384 3.383292 10.247228 -4.144104 -0.000009 0.000001 62.836094 -26.113912 161.311064 0.000004 -0.000007 -10.116479 -82.760528 -13.885790 -25.805851 0.000006 -0.000007 -12.937801 -358.689952 -42.032762 -53.160537 2.175594 0.064502 -2.662903 -724.306973 -4.150893 3.579066 -0.000001 -0.000011 -18.585806 200.686380 -190.546090 -159.469617 0.000000 0.000010 -18.979511 748.200997 2.983727 -126.386012 -2.092387 -0.058104 -2.581200 1056.819652 -23.386076 0.112927 0.000002 -0.000009 -18.665005 -1387.606806 29.390441 -410.744299 0.000007 -0.000007 -18.566603 719.374320 3.562978 -28.466675
65.086311 34.979500 44.918491 1763.975037 9.030890 -1.767214 -0.153488 1.163101 7.852403 -10.184446 -1.513332 -0.676854 -0.000001 0.000000 3.343301 3.909183 -3.432183 0.049996 0.000009 0.000012 7.785504 -4.128372 10.571035 1.824594 -0.000003 0.000003 2.173919 1.450524 -4.893922 1.066688 2.676306 -1.652395 4.938302 18.972927 -12.980590 -24.937622 4.299010 0.000006 0.000002 -57.873074 -23.905201 -136.287682 0.000000 -0.000004 -10.245100 55.710383 696.007150 8.704127 -0.000001 0.000001 -12.703307 1308.510374 -160.514910 597.338948 -2.534594 -1.686394 5.195003 -4.633042 3.398934 10.227175 -4.144100 0.000006 -0.000003 62.701068 -26.036900 161.232407 -0.000010 0.000003 -10.116488 -83.008327 -13.820168 -25.784765 0.000001 -0.000007 -12.937798 -358.533732 -42.041993 -53.171735 2.175600 0.064499 -2.662896 -724.145398 -4.172703 3.412984 0.000003 -0.000007 -18.585802 200.600962 -190.692092 -159.496761 0.000001 -0.000002 -18.979509 748.071333 2.968261 -126.358623 -2.092387 -0.058115 -2.581196 1056.620320 -23.377687 -0.175234 0.000007 -0.000010 -18.665009 -1387.579267 29.651781 -410.728672 0.000003 -0.000002 -18.566603 719.466774 3.632341 -28.279616
65.069511 35.002602 44.920795 1764.067053 8.987908 -1.629786 -0.153498 1.163101 7.852396 -10.288206 -1.421823 -0.792456 -0.000001 -0.000000 3.343299 3.922377 -3.429505 0.050203 -0.000009 0.000011 7.785496 -4.178361 10.551828 1.861522 -0.000000 0.000005 2.173909 1.502667 -4.906644 1.011278 2.676284 -1.652402 4.938293 18.980978 -12.991806 -25.018213 4.299006 0.000002 0.000004 -57.879242 -23.954375 -136.223110 -0.000004 0.000002 -10.245103 55.753335 695.987916 8.722552 0.000003 0.000002 -12.703300 1308.427538 -160.516699 597.341352 -2.534612 -1.686391 5.194995 -4.656111 3.398501 10.167414 -4.144098 0.000003 0.000002 62.602133 -25.944431 161.144885 0.000003 -0.000005 -10.116496 -83.236940 -13.782593 -25.768695 0.000005 -0.000011 -12.937799 -358.385326 -42.052491 -53.173487 2.175602 0.064504 -2.662901 -724.015843 -4.178086 3.256059 -0.000008 -0.000000 -18.585800 200.496296 -190.817290 -159.531239 -0.000003 0.000001 -18.979509 747.963306 2.954521 -126.329089 -2.092394 -0.058110 -2.581203 1056.406344 -23.369574 -0.446191 0.000003 -0.000004 -18.665005 -1387.534024 29.917598 -410.740092 0.000010 -0.000003 -18.566603 719.562724 3.696913 -28.088123
65.049706 35.025196 44.924294 1764.169779 8.943692 -1.497968 -0.153504 1.163089 7.852402 -10.406066 -1.330082 -0.873684 0.000001 -0.000001 3.343297 3.957220 -3.432014 0.050362 0.000002 0.000006 7.785505 -4.211269 10.530705 1.844394 -0.000002 0.000010 2.173903 1.537081 -4.904846 0.978413 2.676292 -1.652394 4.938290 18.994708 -13.017307 -25.115719 4.299000 0.000000 0.000000 -57.897792 -23.987406 -136.158018 -0.000005 0.000006 -10.245100 55.829994 695.981469 8.741985 0.000001 0.000003 -12.703316 1308.341204 -160.515115 597.362061 -2.534605 -1.686407 5.194999 -4.513194 3.429370 9.228343 -4.144103 0.000005 0.000006 62.524583 -25.122809 161.479209 -0.000014 0.000005 -10.116500 -83.458450 -13.766243 -25.782760 0.000008 -0.000008 -12.937801 -358.262847 -42.058994 -53.161978 2.175595 0.064489 -2.662892 -723.881480 -4.183011 3.112803 0.000002 0.000007 -18.585804 200.363545 -190.939017 -159.577849 -0.000005 -0.000003 -18.979507 747.858613 2.932457 -126.294555 -2.092395 -0.058113 -2.581193 1056.273128 -23.306265 -0.688284 0.000004 -0.000007 -18.665009 -1387.593037 30.117996 -410.684904 0.000008 -0.000007 -18.566605 719.628950 3.735522 -27.969910
65.030899 35.044800 44.926693 1764.300154 8.888977 -1.437856 -0.153497 1.163100 7.852407 -10.558170 -1.245969 -0.863011 -0.000007 0.000006 3.343297 4.015937 -3.433282 0.050767 -0.000002 0.000002 7.785497 -4.213674 10.507811 1.771536 -0.000001 0.000003 2.173902 1.544896 -4.889522 0.974606 2.676297 -1.652390 4.938292 19.004802 -13.066439 -25.239250 4.298999 -0.000002 0.000002 -57.916234 -24.011810 -136.075864 -0.000004 -0.000002 -10.245106 55.925951 695.986878 8.760890 0.000001 0.000004 -12.703300 1308.261537 -160.512697 597.409271 -2.534597 -1.686402 5.194998 -4.578900 3.417855 9.145118 -4.144099 -0.000004 0.000004 62.431774 -25.079153 161.334505 -0.000007 -0.000002 -10.116497 -83.800335 -13.744610 -25.866095 0.000009 -0.000015 -12.937798 -358.075591 -42.058918 -53.137803 2.175594 0.064497 -2.662894 -723.821101 -4.174107 3.034993 -0.000001 0.000005 -18.585802 200.233689 -191.035706 -159.619909 -0.000005 -0.000003 -18.979511 747.791950 2.902285 -126.263601 -2.092400 -0.058098 -2.581190 1056.162315 -23.242376 -0.833858 0.000010 -0.000010 -18.665001 -1387.694014 30.284284 -410.598844 0.000005 -0.000002 -18.566601 719.696705 3.783259 -27.863193
65.014900 35.059605 44.929295 1764.412278 8.823120 -1.442323 -0.153511 1.163107 7.852407 -10.699777 -1.175069 -0.773658 0.000003 -0.000008 3.343304 4.091939 -3.427997 0.051143 -0.000007 -0.000001 7.785499 -4.183581 10.484186 1.657851 -0.000003 -0.000002 2.173901 1.425584 -4.935189 1.521418 2.676290 -1.652407 4.938297 18.992617 -13.126835 -25.376149 4.299015 0.000002 0.000010 -57.917948 -24.027786 -135.982468 -0.000010 -0.000002 -10.245109 56.031460 695.998298 8.784176 -0.000010 -0.000008 -12.703295 1308.188208 -160.503367 597.459924 -2.534600 -1.686399 5.194994 -4.621598 3.421607 9.054508 -4.144104 0.000006 0.000006 62.322061 -25.050880 161.198379 -0.000008 -0.000008 -10.116494 -84.251073 -13.659677 -26.001062 -0.000001 -0.000004 -12.937803 -357.830879 -42.079942 -53.102231 2.175581 0.064502 -2.662899 -723.796458 -4.149925 3.031191 0.000001 0.000009 -18.585798 200.135416 -191.110592 -159.667283 -0.000008 -0.000005 -18.979513 747.749002 2.868293 -126.238343 -2.092404 -0.058102 -2.581195 1056.057294 -23.201283 -0.903444 0.000003 -0.000010 -18.665005 -1387.737618 30.439950 -410.551797 -0.000004 -0.000007 -18.566603 719.763477 3.823245 -27.748193
